<?xml version="1.0" encoding="UTF-8"?>
<!DOCTYPE svg PUBLIC "-//W3C//DTD SVG 1.1//EN" "http://www.w3.org/Graphics/SVG/1.1/DTD/svg11.dtd">
<svg version="1.1" xmlns="http://www.w3.org/2000/svg" xmlns:xlink="http://www.w3.org/1999/xlink"  width="839.044" height="1444"
	 viewBox="0 0 839.044 1444" style="overflow:visible;enable-background:new 0 0 839.044 1444;" xml:space="preserve">
		<path d="M571.044,363c12.983,1.583,36.551,12.515,37,25
			c0.312,8.658-13.905,15.404-8,33c-9.527,14.622-21.451,24.153-15,44c3.75,11.537,19.015,26.559,35,25
			c10.69-1.042,20.874-15.614,31-15c11.366,0.689,15.45,20.312,24,23c23.919,1.679,37.767,15.258,54,30
			c18.122,16.458,32.389,29.836,44,53c10.313,20.573,17.49,38.534,20,70c1.367,17.142,2.88,40.17-1,56
			c-0.935,3.813-4.456,7.582-6,12c-10.157,29.057-21.736,57.995-37,82c-8.499,13.366-18.889,26.965-28,40
			c-9.774,13.982-19.218,28.499-29,39c-6.181,6.635-16.104,9.629-18,19c-15.488,5.178-21.107,20.226-35,27
			c-2.269,11.168-5.691,17.771-13,23c-6.169,4.414-15.001,3.249-22,7c-26.285,14.087-17,59.724-17,100c0,25.506-5.911,54.48-1,76
			c2.457,10.765,12.804,11.357,19,18c2.869,3.076,4.267,10.063,7,14c7.475,10.766,18.466,17.766,25,31
			c13.409,27.157,2.245,69.068-10,91c-7.696,13.784-23.379,31.084-37,45c-21.002,21.456-41.588,35.714-71,49
			c-9.024,4.076-17.884,10.108-26,13c-14.439,5.145-33.809,9.034-53,14c-17.856,4.62-39.461,6.544-56,8
			c-5.561,0.489-11.343-0.887-18-1c-20.895-0.354-42.742,3.416-65,1c-13.833-1.502-29.102-6.202-44-9
			c-14.509-2.725-28.896-6.842-41-12c-47.293-20.152-86.438-41.73-122-72c-19.953-29.151-55.651-81.533-34-128
			c3.983-8.549,15.964-12.78,24-23c3.839-4.882,5.06-11.814,8-15c5.113-5.54,12.227-6.271,15-12c8.5-17.556-0.181-64.9,0-88
			c0.036-4.641,1.128-9.891,1-13c-1.312-31.79-6.601-68.99-4-105c1.435-19.871-0.934-45.278-1-66c-0.056-17.493,8.052-41.107,0-54
			c0.064-5.27,3.327-7.34,3-13c2.596-80.459,2.531-197.699,9-288c2.777-38.77-4.206-86.338,8-106c6.441-10.376,22.55-21.224,37-19
			c14.451-35.577,58.616-38.76,105-48c36.977-7.366,80.482-8,117-8c31.578,0,75.019,8.943,100,20c14.938,6.612,30.228,15.087,32,31
			c9.126-0.126,12.624,5.376,20,7c0.018-7.879-7.494-12.658-12-18c-62.236-73.784-119.361-158.235-164-252
			c-6.892-14.477-16.066-29.576-20-43c-4.216-14.388-5.891-39.489,11-41c11.946-1.068,16.08,11.77,25,13
			c5.198,0.717,11.333-3.512,17-4c14.856-1.278,38.409,4.759,52,12c24.459,13.032,46.404,42.614,64,69
			c12.425,18.631,26.471,40.284,37,62c13.637,28.125,30.388,64.021,38,100C587.46,317.596,574.077,341.172,571.044,363z
			 M555.044,514c8.92-2.747,13.815-9.518,23-12c-6.635-7.699-16.705-11.961-25-18C551.022,492.827,553.27,505.672,555.044,514z
			 M602.044,882c20.494-24.708,49.944-46.086,71-76c13.633-19.368,23.02-41.111,33-63c2.295-5.032,7.061-8.864,9-14
			c2.604-6.896,3.764-15.513,6-24c5.784-21.952,13.471-53.12,8-83c-2.05-11.198-8.881-17.3-11-30
			c-13.926-16.622-33.881-36.891-58-42c-5.118-1.084-14.346-3.213-21-2c-7.408,1.351-9.92,7.856-17,11
			c-11.549,5.128-25.121,9.431-37,6c-7.08,7.671-21.246,12.718-24,23c-2.394,8.938,2.167,23.544,3,30
			c10.544,81.701,12.563,188.356,18,270C590.096,887.385,591.078,879.701,602.044,882z"/>
</svg>
